<svg xmlns="http://www.w3.org/2000/svg" width="70.001" height="70" viewBox="0 0 70.001 70">
  <g id="arrow-right" transform="translate(0)">
    <path id="Subtraction_1" data-name="Subtraction 1" d="M-6929,70a34.781,34.781,0,0,1-13.624-2.751,34.88,34.88,0,0,1-11.125-7.5,34.879,34.879,0,0,1-7.5-11.125A34.777,34.777,0,0,1-6964,35a34.777,34.777,0,0,1,2.75-13.624,34.879,34.879,0,0,1,7.5-11.125,34.879,34.879,0,0,1,11.125-7.5A34.781,34.781,0,0,1-6929,0a34.782,34.782,0,0,1,13.624,2.751,34.879,34.879,0,0,1,11.125,7.5,34.888,34.888,0,0,1,7.5,11.125A34.777,34.777,0,0,1-6894,35a34.777,34.777,0,0,1-2.75,13.624,34.889,34.889,0,0,1-7.5,11.125,34.884,34.884,0,0,1-11.125,7.5A34.782,34.782,0,0,1-6929,70Zm-3.057-48.362a1.91,1.91,0,0,0-1.353.556,1.878,1.878,0,0,0-.561,1.34,1.9,1.9,0,0,0,.561,1.358L-6923.294,35-6933.4,45.118a1.881,1.881,0,0,0-.561,1.342,1.9,1.9,0,0,0,.561,1.356,1.9,1.9,0,0,0,1.353.558,1.9,1.9,0,0,0,1.354-.558l11.509-11.533a1.9,1.9,0,0,0-.056-2.636L-6930.7,22.194A1.91,1.91,0,0,0-6932.057,21.639Z" transform="translate(6964)" fill="#c2c2c2" opacity="0.53"/>
  </g>
</svg>
