<svg xmlns="http://www.w3.org/2000/svg" xmlns:xlink="http://www.w3.org/1999/xlink" width="96.007" height="76.895" viewBox="0 0 96.007 76.895">
  <defs>
    <linearGradient id="linear-gradient" x1="0.5" x2="0.5" y2="1" gradientUnits="objectBoundingBox">
      <stop offset="0" stop-color="#f7931e"/>
      <stop offset="1" stop-color="#f15a24"/>
    </linearGradient>
  </defs>
  <g id="Logo" transform="translate(-809.932 -189.553)">
    <g id="Logo-2" data-name="Logo" transform="translate(809.932 189.553)">
      <g id="Group_8" data-name="Group 8" transform="translate(73.064 66.197) rotate(180)">
        <rect id="Rectangle_7" data-name="Rectangle 7" width="64.889" height="50.984" transform="translate(0 0)" fill="none"/>
      </g>
      <g id="Group_9" data-name="Group 9">
        <path id="Path_5" data-name="Path 5" d="M-1.832,22.024a1.453,1.453,0,0,0,.615-1.768,9.142,9.142,0,0,1-.56-3.13V-9.169a9.46,9.46,0,0,1,4.793-8.19L26.1-30.506a9.137,9.137,0,0,1,1.813-.782,1.464,1.464,0,0,0,1.051-1.386v0a1.468,1.468,0,0,0-1.909-1.388,12.421,12.421,0,0,0-2.421,1.055L1.55-19.863A12.352,12.352,0,0,0-4.709-9.169V17.126a12.112,12.112,0,0,0,.734,4.142,1.478,1.478,0,0,0,2.131.763Zm53.477-2.06-4.166-4.11a2.684,2.684,0,0,0-3.207-.417L31.466,22.731a1.178,1.178,0,0,1-1.157,0L14.716,13.848a1.141,1.141,0,0,1-.579-.989V-2.22A1.442,1.442,0,0,0,13.36-3.5l-.007,0a1.462,1.462,0,0,0-2.148,1.275V12.86a4.035,4.035,0,0,0,2.045,3.494l15.593,8.881a4.136,4.136,0,0,0,4.089,0l13.091-7.457a.613.613,0,0,1,.764.124l2.64,2.963a.6.6,0,0,1-.153.918l-15.629,8.9c-.145.082-.294.158-.445.227a1.483,1.483,0,0,0-.908,1.334,1.463,1.463,0,0,0,2.045,1.329,7.707,7.707,0,0,0,.772-.386l15.984-9.1a2.6,2.6,0,0,0,.551-4.124m6.266,3.257a3.815,3.815,0,0,0-2.777,1.256,3.54,3.54,0,0,0-1.122,3.544L35.68,38.462a9.723,9.723,0,0,1-9.584,0L3.016,25.316a8.744,8.744,0,0,1-.972-.646,1.494,1.494,0,0,0-1.661-.117l-.012.006A1.43,1.43,0,0,0,.2,26.927a12.085,12.085,0,0,0,1.35.892L24.629,40.968a12.7,12.7,0,0,0,12.517,0L55.7,30.4a3.982,3.982,0,0,0,2.852.577,3.9,3.9,0,0,0-.642-7.755M7.357,22.194l19.307,11,.152.084a1.461,1.461,0,0,0,2.143-1.282v-.931a5.463,5.463,0,0,1-.83-.375l-19.307-11a5.43,5.43,0,0,1-2.757-4.712v-22a5.43,5.43,0,0,1,2.758-4.712l19.307-11a5.583,5.583,0,0,1,5.516,0l5.094,2.87a3.9,3.9,0,0,0,.141,2.073A3.911,3.911,0,0,0,41.7-15.275a3.945,3.945,0,0,0,4.827-4.467,3.928,3.928,0,0,0-3-3.145,3.994,3.994,0,0,0-3.167.608L35.11-25.235a8.563,8.563,0,0,0-8.446,0l-19.307,11A8.313,8.313,0,0,0,3.133-7.019v22a8.334,8.334,0,0,0,4.224,7.218M32.293-32.83a1.474,1.474,0,0,1,1.875-1.4,12.463,12.463,0,0,1,2.978,1.216L56.662-21.894a2.754,2.754,0,0,1,.582,4.364L47.562-7.979a2.839,2.839,0,0,1-3.393.441l-12.7-7.237a1.178,1.178,0,0,0-1.157,0L16.243-6.762C13.651-5.231,11.655-7.3,13.251-8.4l15.592-8.882a4.145,4.145,0,0,1,4.089,0l12.3,7a.611.611,0,0,0,.748-.108c2.346-2.485,6.59-6.89,8.306-8.668a.6.6,0,0,0,.161-.5.6.6,0,0,0-.3-.436L35.68-30.506a9.473,9.473,0,0,0-2.287-.928,1.451,1.451,0,0,1-1.1-1.4" transform="translate(4.709 34.279)" fill="url(#linear-gradient)"/>
      </g>
    </g>
    <text id="clouter" transform="translate(834.94 232.768)" fill="#fff" stroke="rgba(0,0,0,0)" stroke-width="1" font-size="19" font-family="Raleway-Bold, Raleway" font-weight="700" letter-spacing="0.034em"><tspan x="0" y="0">clouter</tspan></text>
  </g>
</svg>
