<svg xmlns="http://www.w3.org/2000/svg" xmlns:xlink="http://www.w3.org/1999/xlink" width="124.242" height="88.173" viewBox="0 0 124.242 88.173">
  <defs>
    <linearGradient id="linear-gradient" x1="0.5" x2="0.5" y2="1" gradientUnits="objectBoundingBox">
      <stop offset="0" stop-color="#f7931e"/>
      <stop offset="1" stop-color="#f15a24"/>
    </linearGradient>
  </defs>
  <g id="Group_141" data-name="Group 141" transform="translate(-90.758 -71.11)">
    <g id="Logo" transform="translate(90.758 71.11)">
      <g id="Group_9" data-name="Group 9">
        <path id="Path_5" data-name="Path 5" d="M-1.41,30.281a1.666,1.666,0,0,0,.7-2.027,10.483,10.483,0,0,1-.642-3.589V-5.486a10.848,10.848,0,0,1,5.5-9.391L30.613-29.953a10.477,10.477,0,0,1,2.079-.9A1.678,1.678,0,0,0,33.9-32.439v0a1.684,1.684,0,0,0-2.189-1.591,14.242,14.242,0,0,0-2.776,1.209L2.468-17.749A14.163,14.163,0,0,0-4.709-5.486V24.665a13.889,13.889,0,0,0,.841,4.749,1.7,1.7,0,0,0,2.444.875ZM59.91,27.918l-4.777-4.713a3.077,3.077,0,0,0-3.677-.478L36.771,31.092a1.351,1.351,0,0,1-1.326,0L17.565,20.907a1.308,1.308,0,0,1-.663-1.134V2.481a1.653,1.653,0,0,0-.892-1.462l-.008,0A1.677,1.677,0,0,0,13.54,2.477v17.3a4.627,4.627,0,0,0,2.345,4.007L33.764,33.964a4.743,4.743,0,0,0,4.689,0l15.011-8.551a.7.7,0,0,1,.876.142l3.027,3.4a.686.686,0,0,1-.175,1.053L39.271,40.215c-.166.095-.337.181-.51.26a1.7,1.7,0,0,0-1.041,1.53,1.678,1.678,0,0,0,2.345,1.524,8.84,8.84,0,0,0,.886-.442l18.328-10.44a2.984,2.984,0,0,0,.631-4.729m7.185,3.734a4.374,4.374,0,0,0-3.184,1.44,4.06,4.06,0,0,0-1.287,4.064L41.6,49.13a11.149,11.149,0,0,1-10.99,0L4.149,34.055a10.025,10.025,0,0,1-1.115-.741,1.713,1.713,0,0,0-1.9-.135l-.014.007A1.64,1.64,0,0,0,.92,35.9a13.857,13.857,0,0,0,1.548,1.023L28.932,52a14.565,14.565,0,0,0,14.353,0L64.56,39.883a4.566,4.566,0,0,0,3.27.662,4.476,4.476,0,0,0-.736-8.893M9.126,30.476,31.265,43.088c.058.033.116.065.174.1A1.675,1.675,0,0,0,33.9,41.714V40.646a6.266,6.266,0,0,1-.952-.43L10.807,27.6a6.226,6.226,0,0,1-3.162-5.4V-3.023a6.226,6.226,0,0,1,3.163-5.4L32.945-21.037a6.4,6.4,0,0,1,6.325,0l5.841,3.291a4.473,4.473,0,0,0,.161,2.377,4.485,4.485,0,0,0,3.231,2.88,4.523,4.523,0,0,0,5.535-5.122A4.5,4.5,0,0,0,50.6-21.216a4.58,4.58,0,0,0-3.631.7l-6.015-3.39a9.818,9.818,0,0,0-9.684,0L9.126-11.3A9.532,9.532,0,0,0,4.283-3.022V22.2a9.556,9.556,0,0,0,4.843,8.276M37.719-32.617a1.69,1.69,0,0,1,2.15-1.6,14.291,14.291,0,0,1,3.415,1.395L65.662-20.078a3.158,3.158,0,0,1,.668,5L55.228-4.122a3.255,3.255,0,0,1-3.89.505l-14.567-8.3a1.351,1.351,0,0,0-1.326,0L19.316-2.727C16.344-.971,14.055-3.348,15.885-4.6L33.764-14.786a4.753,4.753,0,0,1,4.689,0l14.1,8.032a.7.7,0,0,0,.858-.124c2.69-2.849,7.557-7.9,9.525-9.939a.684.684,0,0,0,.185-.574.69.69,0,0,0-.342-.5L41.6-29.953a10.862,10.862,0,0,0-2.622-1.064,1.663,1.663,0,0,1-1.261-1.6" transform="translate(4.709 34.279)" fill="url(#linear-gradient)"/>
      </g>
    </g>
    <text id="clouter" transform="translate(120 123)" fill="#f15a24" font-size="27" font-family="Raleway-Bold, Raleway" font-weight="700" letter-spacing="0.008em"><tspan x="0" y="0">clouter</tspan></text>
  </g>
</svg>
